<svg width="40" height="40" viewBox="0 0 40 40" fill="none" xmlns="http://www.w3.org/2000/svg">
<g clip-path="url(#clip0_1097_1305)">
<mask id="mask0_1097_1305" style="mask-type:luminance" maskUnits="userSpaceOnUse" x="0" y="-1" width="40" height="41">
<path d="M0 -0.000125885H39.9999V39.9998H0V-0.000125885Z" fill="white"/>
</mask>
<g mask="url(#mask0_1097_1305)">
<path d="M27.6048 4.7511C25.3938 3.57712 22.9149 2.84079 20.2837 2.65759" stroke="#3B53A3" stroke-width="1.5" stroke-miterlimit="10" stroke-linecap="round" stroke-linejoin="round"/>
<path d="M17.6804 2.65826C8.12771 3.32857 0.585938 11.2894 0.585938 21.0126C0.585938 31.1753 8.82443 39.4137 18.9871 39.4137C29.1497 39.4137 37.3882 31.1753 37.3882 21.0126C37.3882 17.8984 36.6145 14.965 35.249 12.3941" stroke="#3B53A3" stroke-width="1.5" stroke-miterlimit="10" stroke-linecap="round" stroke-linejoin="round"/>
<path d="M28.0905 10.0377C25.6211 7.98677 22.4482 6.75357 18.9871 6.75357C11.1121 6.75357 4.72803 13.1375 4.72803 21.0126C4.72803 28.8876 11.1121 35.2716 18.9871 35.2716C26.4225 35.2716 32.5276 29.5803 33.1862 22.3166" stroke="#3B53A3" stroke-width="1.5" stroke-miterlimit="10" stroke-linecap="round" stroke-linejoin="round"/>
<path d="M33.1865 19.7131C32.9197 16.7613 31.7536 14.0691 29.9644 11.9125" stroke="#3B53A3" stroke-width="1.5" stroke-miterlimit="10" stroke-linecap="round" stroke-linejoin="round"/>
<path d="M29.1041 21.0126C29.1041 26.6001 24.5746 31.1296 18.9871 31.1296C13.3996 31.1296 8.87012 26.6001 8.87012 21.0126C8.87012 15.4251 13.3996 10.8956 18.9871 10.8956C24.5746 10.8956 29.1041 15.4251 29.1041 21.0126Z" stroke="#3B53A3" stroke-width="1.5" stroke-miterlimit="10" stroke-linecap="round" stroke-linejoin="round"/>
<path d="M15.8059 26.0175C16.7561 26.6238 17.86 26.9452 18.9871 26.9438C22.2629 26.9438 24.9184 24.2884 24.9184 21.0125C24.9184 17.7368 22.2629 15.0811 18.9871 15.0811C15.7113 15.0811 13.0557 17.7368 13.0557 21.0125C13.0543 22.1313 13.371 23.2273 13.9687 24.173" stroke="#3B53A3" stroke-width="1.5" stroke-miterlimit="10" stroke-linecap="round" stroke-linejoin="round"/>
<path d="M21.1497 21.0127C21.1497 22.2071 20.1814 23.1754 18.9869 23.1754C17.7925 23.1754 16.8242 22.2071 16.8242 21.0127C16.8242 19.8182 17.7925 18.8499 18.9869 18.8499C20.1814 18.8499 21.1497 19.8182 21.1497 21.0127Z" stroke="#3B53A3" stroke-width="1.5" stroke-miterlimit="10" stroke-linecap="round" stroke-linejoin="round"/>
<path d="M18.9873 21.0127L34.9702 5.02977" stroke="#3B53A3" stroke-width="1.5" stroke-miterlimit="10" stroke-linecap="round" stroke-linejoin="round"/>
<path d="M27.5921 4.82118C27.4572 4.95612 27.3579 5.12249 27.3032 5.30532C27.2485 5.48816 27.2401 5.68172 27.2788 5.8686L28.4533 11.5466L30.4019 9.59812L29.5338 5.40212C29.3483 4.50485 28.2399 4.17329 27.5921 4.82118Z" stroke="#3B53A3" stroke-width="1.5" stroke-miterlimit="10" stroke-linecap="round" stroke-linejoin="round"/>
<path d="M29.5404 2.87257C29.4054 3.00751 29.3061 3.17388 29.2514 3.35671C29.1967 3.53955 29.1883 3.73311 29.227 3.91999L30.4016 9.59802L32.3501 7.64951L31.4821 3.45351C31.2965 2.55625 30.1882 2.22468 29.5404 2.87257Z" stroke="#3B53A3" stroke-width="1.5" stroke-miterlimit="10" stroke-linecap="round" stroke-linejoin="round"/>
<path d="M31.4891 0.924087C31.3541 1.05902 31.2549 1.22539 31.2002 1.40823C31.1455 1.59106 31.1371 1.78462 31.1757 1.97151L32.3504 7.64954L34.2989 5.70095L33.4308 1.50502C33.2453 0.60776 32.1369 0.276199 31.4891 0.924087Z" stroke="#3B53A3" stroke-width="1.5" stroke-miterlimit="10" stroke-linecap="round" stroke-linejoin="round"/>
<path d="M35.1786 12.4077C35.0436 12.5427 34.8773 12.6419 34.6944 12.6967C34.5116 12.7514 34.318 12.7598 34.1312 12.7211L28.4531 11.5465L30.4017 9.59795L34.5976 10.466C35.4948 10.6515 35.8264 11.7599 35.1786 12.4077Z" stroke="#3B53A3" stroke-width="1.5" stroke-miterlimit="10" stroke-linecap="round" stroke-linejoin="round"/>
<path d="M37.1272 10.4592C36.9923 10.5942 36.8259 10.6935 36.643 10.7482C36.4602 10.8029 36.2666 10.8113 36.0797 10.7726L30.4019 9.59804L32.3504 7.64945L36.5463 8.5175C37.4435 8.70304 37.775 9.81132 37.1272 10.4592Z" stroke="#3B53A3" stroke-width="1.5" stroke-miterlimit="10" stroke-linecap="round" stroke-linejoin="round"/>
<path d="M39.0755 8.51061C38.9405 8.64556 38.7742 8.74486 38.5913 8.79957C38.4085 8.85428 38.2149 8.86269 38.028 8.82405L32.3501 7.64944L34.2986 5.70077L38.4945 6.5689C39.3917 6.75444 39.7233 7.86272 39.0755 8.51061Z" stroke="#3B53A3" stroke-width="1.5" stroke-miterlimit="10" stroke-linecap="round" stroke-linejoin="round"/>
</g>
</g>
<defs>
<clipPath id="clip0_1097_1305">
<rect width="40" height="40" fill="white"/>
</clipPath>
</defs>
</svg>
