<svg width="40" height="40" viewBox="0 0 40 40" fill="none" xmlns="http://www.w3.org/2000/svg">
<g clip-path="url(#clip0_1097_1217)">
<g clip-path="url(#clip1_1097_1217)">
<path d="M8.44568 10.8686L8.30787 10.8116C8.33688 10.7415 8.37941 10.6779 8.43302 10.6242C8.48663 10.5706 8.55028 10.5281 8.62034 10.4991C8.69039 10.47 8.76548 10.4551 8.84131 10.4551H20.8976C21.2166 10.4551 21.475 10.7136 21.475 11.0325L8.44568 10.8686ZM8.44568 10.8686L8.30787 10.8116M8.44568 10.8686L8.30787 10.8116M21.0612 14.7792L21.1186 14.9178C21.0485 14.9468 20.9735 14.9618 20.8976 14.9618H8.84131C8.52237 14.9618 8.26397 14.7032 8.26396 14.3844L21.0612 14.7792ZM21.0612 14.7792L21.1186 14.9178C21.1887 14.8888 21.2523 14.8463 21.3059 14.7926C21.3595 14.739 21.4021 14.6753 21.4311 14.6053C21.4601 14.5352 21.475 14.4602 21.475 14.3843L21.0612 14.7792ZM8.44646 17.5726L8.30787 17.5152C8.33688 17.4451 8.3794 17.3815 8.43302 17.3278C8.48663 17.2742 8.55028 17.2317 8.62034 17.2026C8.69039 17.1736 8.76548 17.1587 8.84131 17.1587H13.0185C13.3374 17.1587 13.5958 17.4172 13.5958 17.7361L8.44646 17.5726ZM8.44646 17.5726L8.30787 17.5152M8.44646 17.5726L8.30787 17.5152M3.42313 20.9244L3.28454 20.867C3.31355 20.7969 3.35607 20.7333 3.40969 20.6796C3.4633 20.626 3.52695 20.5835 3.59701 20.5544C3.66706 20.5254 3.74215 20.5105 3.81798 20.5105H8.88661C9.03975 20.5105 9.18663 20.5713 9.29492 20.6796C9.40321 20.7879 9.46404 20.9348 9.46404 21.0879C9.46404 21.2411 9.40321 21.3879 9.29492 21.4962C9.18663 21.6045 9.03975 21.6654 8.88661 21.6654H3.81798C3.49903 21.6654 3.24064 21.4068 3.24063 21.088L3.42313 20.9244ZM3.42313 20.9244L3.28454 20.867M3.42313 20.9244L3.28454 20.867M3.40969 24.0314L3.40969 24.0314C3.4633 23.9778 3.52695 23.9353 3.59701 23.9062C3.66706 23.8772 3.74214 23.8623 3.81798 23.8623H7.09379C7.41273 23.8623 7.67112 24.1208 7.67114 24.4397L3.40969 24.0314ZM3.40969 24.0314C3.35607 24.085 3.31355 24.1487 3.28454 24.2188C3.25554 24.2888 3.24061 24.3639 3.24063 24.4397L3.40969 24.0314ZM7.25735 24.8346L7.31476 24.9732C7.2447 25.0022 7.16962 25.0172 7.09379 25.0172H3.81798C3.49903 25.0172 3.24064 24.7586 3.24063 24.4397L7.25735 24.8346ZM7.25735 24.8346L7.31476 24.9732C7.38481 24.9442 7.44846 24.9016 7.50208 24.848C7.55569 24.7944 7.59822 24.7307 7.62722 24.6607C7.65623 24.5906 7.67115 24.5155 7.67114 24.4397L7.25735 24.8346ZM20.8976 11.61H8.84131C8.52237 11.61 8.26397 11.3514 8.26396 11.0326L20.8976 11.61ZM20.8976 11.61C20.9735 11.61 21.0485 11.595 21.1186 11.566C21.1887 11.537 21.2523 11.4945 21.3059 11.4408C21.3595 11.3872 21.4021 11.3235 21.4311 11.2535C21.4601 11.1834 21.475 11.1084 21.475 11.0325L20.8976 11.61ZM8.30787 10.8116C8.27887 10.8816 8.26395 10.9567 8.26396 11.0325L8.30787 10.8116ZM13.0185 18.3136H8.84131C8.52237 18.3136 8.26397 18.055 8.26396 17.7362L13.0185 18.3136ZM13.0185 18.3136C13.0943 18.3136 13.1694 18.2986 13.2395 18.2696C13.3095 18.2406 13.3732 18.198 13.4268 18.1444C13.4804 18.0908 13.5229 18.0271 13.5519 17.9571C13.5809 17.887 13.5958 17.8119 13.5958 17.7361L13.0185 18.3136ZM8.30787 17.5152C8.27887 17.5852 8.26395 17.6603 8.26396 17.7361L8.30787 17.5152ZM3.28454 20.867C3.25554 20.937 3.24061 21.0121 3.24063 21.0879L3.28454 20.867ZM8.30787 14.1634C8.27887 14.2334 8.26395 14.3085 8.26396 14.3843L21.475 14.3843C21.475 14.0654 21.2166 13.8069 20.8976 13.8069H8.84131C8.76548 13.8069 8.69039 13.8218 8.62034 13.8509C8.55028 13.8799 8.48663 13.9224 8.43302 13.976C8.37941 14.0297 8.33688 14.0933 8.30787 14.1634Z" fill="#DA1F26" stroke="#DA1F26" stroke-width="0.3"/>
<path d="M6.74834 34.7307C7.34967 34.7312 7.94176 34.5926 8.4788 34.3272V38.2536L7.13206 37.0562C7.02637 36.9622 6.88985 36.9103 6.74842 36.9103C6.60698 36.9103 6.47047 36.9622 6.36477 37.0562L5.01803 38.2536V35.7938C5.01803 35.6406 4.95721 35.4938 4.84893 35.3855C4.74066 35.2772 4.59381 35.2164 4.44068 35.2164C4.28756 35.2164 4.14071 35.2772 4.03244 35.3855C3.92416 35.4938 3.86333 35.6406 3.86333 35.7938V36.6111H2.47863C1.66605 36.6111 1.0047 35.9496 1.0047 35.1368V7.52821C1.0047 6.71537 1.66605 6.05385 2.47863 6.05385H4.87342V7.30211C4.87342 7.30212 4.87342 7.30213 4.87342 7.30214C4.87341 7.37796 4.88833 7.45304 4.91733 7.52309L5.05592 7.4657L4.91733 7.52309C4.94634 7.59315 4.98887 7.65681 5.04248 7.71043C5.09609 7.76406 5.15974 7.80659 5.2298 7.83562C5.29986 7.86464 5.37494 7.87957 5.45077 7.87957H18.8465C18.9223 7.87957 18.9974 7.86464 19.0675 7.83562C19.1375 7.80659 19.2012 7.76406 19.2548 7.71043C19.3084 7.65681 19.3509 7.59315 19.3799 7.52309C19.4089 7.45303 19.4239 7.37795 19.4238 7.30214C19.4238 7.30213 19.4238 7.30212 19.4238 7.30211V6.05385H21.8186C22.6312 6.05385 23.2926 6.71537 23.2926 7.52821V15.3326C23.2926 15.4857 23.3534 15.6325 23.4617 15.7408C23.5699 15.8491 23.7168 15.9099 23.8699 15.9099C24.023 15.9099 24.1699 15.8491 24.2782 15.7408C24.3864 15.6325 24.4473 15.4857 24.4473 15.3326V7.52821C24.4474 6.0783 23.2683 4.89898 21.8187 4.89898H19.4239V3.62282C19.4239 3.54702 19.409 3.47193 19.38 3.40187C19.351 3.33181 19.3085 3.26815 19.2549 3.21453C19.2013 3.1609 19.1376 3.11837 19.0676 3.08934C18.9975 3.06032 18.9224 3.04539 18.8466 3.04539H17.7495V0.427467C17.7495 0.427456 17.7495 0.427446 17.7495 0.427436C17.7495 0.351618 17.7346 0.27654 17.7056 0.206489C17.6766 0.136427 17.634 0.0727667 17.5804 0.0191429C17.5268 -0.0344806 17.4632 -0.0770188 17.3931 -0.106041C17.3231 -0.135063 17.248 -0.15 17.1721 -0.15H7.12521C7.04939 -0.15 6.9743 -0.135062 6.90425 -0.106041C6.83419 -0.0770193 6.77054 -0.0344819 6.71692 0.0191429C6.66331 0.0727677 6.62079 0.136428 6.59178 0.206488C6.56277 0.27654 6.54785 0.351618 6.54786 0.427436C6.54786 0.427446 6.54786 0.427455 6.54786 0.427465V3.0453H5.45077C5.37494 3.0453 5.29985 3.06024 5.2298 3.08926C5.15975 3.11828 5.09609 3.16082 5.04248 3.21444C4.98887 3.26807 4.94634 3.33173 4.91733 3.40179C4.88833 3.47184 4.87341 3.54692 4.87342 3.62274C4.87342 3.62275 4.87342 3.62276 4.87342 3.62277V4.89889H2.47863C1.02909 4.89889 -0.15 6.07821 -0.15 7.52812V35.1368C-0.15 36.5867 1.02909 37.766 2.47863 37.766H3.86342V39.5395C3.86342 40.0306 4.45727 40.2976 4.82437 39.9711C4.82438 39.9711 4.82439 39.9711 4.8244 39.9711L6.74846 38.2604L8.67253 39.9711C8.67254 39.9711 8.67255 39.9711 8.67255 39.9711C9.04735 40.3044 9.6335 40.0241 9.6335 39.5395V37.766H12.1372C12.4561 37.766 12.7145 37.5074 12.7145 37.1886C12.7145 37.1128 12.6996 37.0377 12.6706 36.9676C12.6416 36.8975 12.5991 36.8339 12.5455 36.7803C12.4919 36.7266 12.4282 36.6841 12.3581 36.6551C12.2881 36.6261 12.213 36.6111 12.1372 36.6111H9.6335V33.4625C10.279 32.7623 10.6749 31.8276 10.6749 30.8015C10.6749 28.6349 8.91381 26.8722 6.74846 26.8722C4.58329 26.8722 2.82214 28.6349 2.82214 30.8015C2.82214 32.968 4.58314 34.7306 6.74834 34.7307ZM6.74834 34.7307L6.74846 34.5807V34.7307C6.74842 34.7307 6.74838 34.7307 6.74834 34.7307ZM18.2691 6.7247H6.02812V4.20026H18.2691V6.7247ZM3.97684 30.8013C3.97684 29.2715 5.22041 28.0269 6.74846 28.0269C8.27652 28.0269 9.52017 29.2715 9.52017 30.8013C9.52017 32.3311 8.27652 33.5756 6.74846 33.5756C5.22041 33.5756 3.97684 32.3311 3.97684 30.8013ZM7.70256 1.00487H16.5948V3.0453H7.70256V1.00487Z" fill="#DA1F26" stroke="#DA1F26" stroke-width="0.3"/>
<mask id="path-3-outside-1_1097_1217" maskUnits="userSpaceOnUse" x="4.20996" y="-0.996094" width="37" height="42" fill="black">
<rect fill="white" x="4.20996" y="-0.996094" width="37" height="42"/>
<path d="M6.74842 32.3401C5.90013 32.3401 5.20996 31.6498 5.20996 30.8013C5.20996 29.9528 5.90013 29.2625 6.74842 29.2625C7.59671 29.2625 8.28688 29.9529 8.28688 30.8013C8.28688 31.6498 7.59671 32.3401 6.74842 32.3401ZM6.74842 30.1173C6.37141 30.1173 6.06466 30.4241 6.06466 30.8012C6.06466 31.1783 6.37141 31.4852 6.74842 31.4852C7.12543 31.4852 7.43218 31.1783 7.43218 30.8012C7.43218 30.4241 7.12543 30.1173 6.74842 30.1173ZM39.8743 24.5764L31.0505 15.7772C30.9704 15.6973 30.8619 15.6525 30.7487 15.6525C30.6356 15.6525 30.5271 15.6973 30.447 15.7772L28.3946 17.8244C28.2271 18.0262 28.2271 18.228 28.3946 18.4298L28.5405 18.5752L26.0537 20.2991C24.9847 20.5123 23.9474 20.6968 23.0095 21.303L22.0798 21.1176L19.5232 19.4723L19.7464 19.2497C19.9139 19.0479 19.9139 18.8461 19.7464 18.6443L17.6939 16.5971C17.6138 16.5172 17.5053 16.4724 17.3921 16.4724C17.279 16.4724 17.1705 16.5172 17.0904 16.5971L9.35629 24.31C9.18877 24.5118 9.18877 24.7136 9.35629 24.9154L11.4087 26.9626C11.6098 27.1289 11.811 27.1289 12.0122 26.9626L18.9036 20.0901L21.6855 21.8804C21.7305 21.9094 21.7807 21.9296 21.8332 21.94L22.1371 22.0006C22.1255 22.0119 18.8177 25.3058 18.8177 25.3058C18.3589 25.7629 18.3577 26.5407 18.8173 26.999C20.0477 28.2261 22.0459 28.2239 23.2714 26.9943L23.7398 26.5248C25.1071 26.7484 26.5194 26.4588 27.6882 25.7163L32.8528 30.8578C33.279 31.2829 33.28 32.0055 32.8528 32.4316C32.4202 32.8629 31.7167 32.8629 31.2842 32.4316L29.1624 30.3157C29.0822 30.2357 28.9734 30.1908 28.8601 30.191C28.7467 30.1912 28.6381 30.2363 28.5581 30.3166C28.4781 30.3969 28.4332 30.5057 28.4334 30.6191C28.4336 30.7324 28.4788 30.8411 28.559 30.9211L31.2189 33.5737C31.645 33.9987 31.6459 34.7216 31.2189 35.1475C30.7863 35.5788 30.0827 35.5787 29.6501 35.1475L26.7518 32.257C26.6716 32.177 26.5628 32.1322 26.4495 32.1323C26.3361 32.1325 26.2275 32.1777 26.1475 32.258C26.0675 32.3383 26.0226 32.4471 26.0228 32.5604C26.023 32.6738 26.0682 32.7825 26.1484 32.8625L28.5018 35.2095C28.9222 35.6353 28.9203 36.3535 28.4956 36.777C28.0632 37.2083 27.3595 37.2083 26.9269 36.777L24.3219 34.1791C24.2417 34.0991 24.1329 34.0542 24.0196 34.0544C23.9062 34.0546 23.7976 34.0998 23.7176 34.18C23.6376 34.2603 23.5927 34.3691 23.5929 34.4825C23.5931 34.5959 23.6383 34.7045 23.7185 34.7846L25.2276 36.2895C25.6538 36.7146 25.6548 37.4372 25.2276 37.8633C25.0974 37.9932 24.937 38.0887 24.7608 38.1411C24.5845 38.1935 24.398 38.2012 24.218 38.1635C24.4195 37.4524 24.1971 36.6688 23.6511 36.1709C23.2831 35.8343 22.8004 35.6512 22.3018 35.6589C22.4527 35.0047 22.2463 34.3009 21.7666 33.8325C21.3323 33.4095 20.7365 33.1911 20.1298 33.268C20.1872 32.6789 19.9723 32.081 19.5477 31.6666C19.1044 31.2339 18.5027 31.0562 17.9275 31.1288C17.9884 30.5371 17.772 29.9334 17.3458 29.5172C16.7279 28.9139 15.8012 28.8028 15.0686 29.1802C14.7641 28.823 14.47 28.4571 14.1864 28.0831C14.1525 28.0384 14.1101 28.0008 14.0617 27.9724C14.0133 27.944 13.9597 27.9255 13.9041 27.9178C13.8485 27.9102 13.792 27.9135 13.7377 27.9277C13.6834 27.9419 13.6324 27.9667 13.5877 28.0005C13.5429 28.0344 13.5053 28.0768 13.4769 28.1252C13.4486 28.1737 13.43 28.2272 13.4224 28.2828C13.4147 28.3384 13.4181 28.395 13.4323 28.4493C13.4465 28.5036 13.4712 28.5545 13.5051 28.5993C13.7934 28.9795 14.0922 29.3517 14.4013 29.7152L13.5987 30.5157C12.8408 31.2714 12.8406 32.5443 13.5987 33.3003C14.0147 33.7152 14.6299 33.9279 15.2133 33.8588C15.176 34.4624 15.3388 35.0355 15.7773 35.4729C16.1918 35.8862 16.8013 36.0973 17.3823 36.0326C17.2536 37.1755 18.1915 38.2276 19.3439 38.2276C19.5464 38.2276 19.7483 38.1946 19.9427 38.1319C19.9647 38.6327 20.1724 39.0985 20.533 39.4506C21.2893 40.1888 22.5452 40.1822 23.2937 39.4358C23.2937 39.4358 23.7689 38.96 23.7947 38.9311C24.4942 39.177 25.3053 38.9932 25.8311 38.4688C26.1179 38.1829 26.3056 37.8239 26.3768 37.4337C27.1454 38.1451 28.3513 38.1282 29.0991 37.3825C29.4286 37.0538 29.6273 36.629 29.6688 36.1711C30.3832 36.4722 31.2412 36.3326 31.8224 35.753C32.3808 35.1961 32.5543 34.3314 32.2488 33.6013C32.7049 33.5604 33.1322 33.3607 33.4563 33.0371C34.1305 32.3648 34.2183 31.2588 33.6568 30.4898C34.4213 30.0651 35.0926 29.4912 35.6311 28.8022C35.6997 28.7127 35.7301 28.5998 35.7158 28.488C35.7016 28.3761 35.6437 28.2745 35.5548 28.2051C35.4659 28.1358 35.3533 28.1043 35.2413 28.1177C35.1294 28.131 35.0273 28.188 34.9571 28.2763C34.4425 28.935 33.7886 29.4718 33.0423 29.8482L28.3654 25.1846L29.5098 24.2093C29.5961 24.1357 29.6496 24.0309 29.6586 23.9179C29.6676 23.8049 29.6314 23.6929 29.5579 23.6066C29.5215 23.5639 29.4771 23.5287 29.4271 23.5032C29.3771 23.4776 29.3226 23.4622 29.2666 23.4577C29.2107 23.4533 29.1544 23.4599 29.101 23.4772C29.0476 23.4944 28.9981 23.5221 28.9554 23.5585L27.4208 24.8665C26.34 25.6293 24.979 25.9135 23.6829 25.6452C23.6135 25.6308 23.5416 25.6339 23.4737 25.6542C23.4058 25.6746 23.344 25.7115 23.294 25.7617L22.6663 26.3907C21.7732 27.2865 20.3174 27.288 19.4207 26.3937C19.2872 26.2329 19.2873 26.0723 19.4208 25.9116L22.7054 22.6399C23.7144 21.6348 24.9746 21.386 26.3078 21.12C26.3652 21.1086 26.4196 21.0855 26.4677 21.0522L29.1559 19.1887L37.2185 27.2288C37.4197 27.3952 37.6208 27.3952 37.822 27.2288L39.8744 25.1817C40.0418 24.98 40.0418 24.7782 39.8743 24.5764ZM11.7105 26.0564L10.2633 24.6129L17.3922 17.5035L18.8395 18.947L11.7105 26.0564ZM15.7709 32.6949C15.3384 33.1263 14.6347 33.1262 14.2022 32.6949C13.776 32.2699 13.7751 31.547 14.2022 31.1211L15.1887 30.1374C15.6083 29.7189 16.3241 29.7144 16.7489 30.129C17.1827 30.5526 17.1877 31.2819 16.7574 31.7111L15.7709 32.6949ZM17.9495 34.8676C16.9376 35.8767 15.3661 34.3056 16.3808 33.2939L17.3906 32.2869C17.8134 31.8687 18.523 31.861 18.9508 32.2785C19.3847 32.7021 19.3896 33.4314 18.9593 33.8605L17.9495 34.8676ZM20.1116 37.0568C19.6882 37.479 18.9993 37.4788 18.5759 37.0566C18.1306 36.6411 18.1081 35.9168 18.5431 35.4829L19.6087 34.4202C20.0447 33.9853 20.7439 34.0185 21.1695 34.4442C21.5945 34.8589 21.5992 35.5733 21.1778 35.9935L20.1116 37.0568ZM23.1112 38.4107L22.6902 38.8305C22.2624 39.2571 21.5626 39.2611 21.13 38.8388C20.696 38.4153 20.6912 37.6859 21.1215 37.2568L21.5424 36.837C21.957 36.4259 22.6424 36.4082 23.0752 36.8029C23.5339 37.221 23.5518 37.9712 23.1112 38.4107ZM37.5202 26.3227L29.3016 18.127L30.7488 16.6835L38.9674 24.8792L37.5202 26.3227ZM31.8866 3.5343L30.0798 0.222595C29.9202 -0.0702258 29.4861 -0.0685164 29.3283 0.224902L27.5454 3.54131C27.5119 3.60354 27.4944 3.67312 27.4944 3.74379V12.0346C27.4944 13.2602 28.4912 14.2573 29.7166 14.2573C30.942 14.2573 31.9389 13.2602 31.9389 12.0346V3.73909C31.9389 3.66752 31.921 3.59709 31.8866 3.5343ZM29.7075 1.32482L30.7938 3.31601L28.6368 3.31627L29.7075 1.32482ZM31.0842 12.0346C31.0842 12.7887 30.4707 13.4024 29.7167 13.4024C28.9627 13.4024 28.3492 12.7888 28.3492 12.0346V11.6071H31.0842V12.0346ZM28.3492 10.7522V4.17123L31.0842 4.17089V10.7522H28.3492Z"/>
</mask>
<path d="M6.74842 32.3401C5.90013 32.3401 5.20996 31.6498 5.20996 30.8013C5.20996 29.9528 5.90013 29.2625 6.74842 29.2625C7.59671 29.2625 8.28688 29.9529 8.28688 30.8013C8.28688 31.6498 7.59671 32.3401 6.74842 32.3401ZM6.74842 30.1173C6.37141 30.1173 6.06466 30.4241 6.06466 30.8012C6.06466 31.1783 6.37141 31.4852 6.74842 31.4852C7.12543 31.4852 7.43218 31.1783 7.43218 30.8012C7.43218 30.4241 7.12543 30.1173 6.74842 30.1173ZM39.8743 24.5764L31.0505 15.7772C30.9704 15.6973 30.8619 15.6525 30.7487 15.6525C30.6356 15.6525 30.5271 15.6973 30.447 15.7772L28.3946 17.8244C28.2271 18.0262 28.2271 18.228 28.3946 18.4298L28.5405 18.5752L26.0537 20.2991C24.9847 20.5123 23.9474 20.6968 23.0095 21.303L22.0798 21.1176L19.5232 19.4723L19.7464 19.2497C19.9139 19.0479 19.9139 18.8461 19.7464 18.6443L17.6939 16.5971C17.6138 16.5172 17.5053 16.4724 17.3921 16.4724C17.279 16.4724 17.1705 16.5172 17.0904 16.5971L9.35629 24.31C9.18877 24.5118 9.18877 24.7136 9.35629 24.9154L11.4087 26.9626C11.6098 27.1289 11.811 27.1289 12.0122 26.9626L18.9036 20.0901L21.6855 21.8804C21.7305 21.9094 21.7807 21.9296 21.8332 21.94L22.1371 22.0006C22.1255 22.0119 18.8177 25.3058 18.8177 25.3058C18.3589 25.7629 18.3577 26.5407 18.8173 26.999C20.0477 28.2261 22.0459 28.2239 23.2714 26.9943L23.7398 26.5248C25.1071 26.7484 26.5194 26.4588 27.6882 25.7163L32.8528 30.8578C33.279 31.2829 33.28 32.0055 32.8528 32.4316C32.4202 32.8629 31.7167 32.8629 31.2842 32.4316L29.1624 30.3157C29.0822 30.2357 28.9734 30.1908 28.8601 30.191C28.7467 30.1912 28.6381 30.2363 28.5581 30.3166C28.4781 30.3969 28.4332 30.5057 28.4334 30.6191C28.4336 30.7324 28.4788 30.8411 28.559 30.9211L31.2189 33.5737C31.645 33.9987 31.6459 34.7216 31.2189 35.1475C30.7863 35.5788 30.0827 35.5787 29.6501 35.1475L26.7518 32.257C26.6716 32.177 26.5628 32.1322 26.4495 32.1323C26.3361 32.1325 26.2275 32.1777 26.1475 32.258C26.0675 32.3383 26.0226 32.4471 26.0228 32.5604C26.023 32.6738 26.0682 32.7825 26.1484 32.8625L28.5018 35.2095C28.9222 35.6353 28.9203 36.3535 28.4956 36.777C28.0632 37.2083 27.3595 37.2083 26.9269 36.777L24.3219 34.1791C24.2417 34.0991 24.1329 34.0542 24.0196 34.0544C23.9062 34.0546 23.7976 34.0998 23.7176 34.18C23.6376 34.2603 23.5927 34.3691 23.5929 34.4825C23.5931 34.5959 23.6383 34.7045 23.7185 34.7846L25.2276 36.2895C25.6538 36.7146 25.6548 37.4372 25.2276 37.8633C25.0974 37.9932 24.937 38.0887 24.7608 38.1411C24.5845 38.1935 24.398 38.2012 24.218 38.1635C24.4195 37.4524 24.1971 36.6688 23.6511 36.1709C23.2831 35.8343 22.8004 35.6512 22.3018 35.6589C22.4527 35.0047 22.2463 34.3009 21.7666 33.8325C21.3323 33.4095 20.7365 33.1911 20.1298 33.268C20.1872 32.6789 19.9723 32.081 19.5477 31.6666C19.1044 31.2339 18.5027 31.0562 17.9275 31.1288C17.9884 30.5371 17.772 29.9334 17.3458 29.5172C16.7279 28.9139 15.8012 28.8028 15.0686 29.1802C14.7641 28.823 14.47 28.4571 14.1864 28.0831C14.1525 28.0384 14.1101 28.0008 14.0617 27.9724C14.0133 27.944 13.9597 27.9255 13.9041 27.9178C13.8485 27.9102 13.792 27.9135 13.7377 27.9277C13.6834 27.9419 13.6324 27.9667 13.5877 28.0005C13.5429 28.0344 13.5053 28.0768 13.4769 28.1252C13.4486 28.1737 13.43 28.2272 13.4224 28.2828C13.4147 28.3384 13.4181 28.395 13.4323 28.4493C13.4465 28.5036 13.4712 28.5545 13.5051 28.5993C13.7934 28.9795 14.0922 29.3517 14.4013 29.7152L13.5987 30.5157C12.8408 31.2714 12.8406 32.5443 13.5987 33.3003C14.0147 33.7152 14.6299 33.9279 15.2133 33.8588C15.176 34.4624 15.3388 35.0355 15.7773 35.4729C16.1918 35.8862 16.8013 36.0973 17.3823 36.0326C17.2536 37.1755 18.1915 38.2276 19.3439 38.2276C19.5464 38.2276 19.7483 38.1946 19.9427 38.1319C19.9647 38.6327 20.1724 39.0985 20.533 39.4506C21.2893 40.1888 22.5452 40.1822 23.2937 39.4358C23.2937 39.4358 23.7689 38.96 23.7947 38.9311C24.4942 39.177 25.3053 38.9932 25.8311 38.4688C26.1179 38.1829 26.3056 37.8239 26.3768 37.4337C27.1454 38.1451 28.3513 38.1282 29.0991 37.3825C29.4286 37.0538 29.6273 36.629 29.6688 36.1711C30.3832 36.4722 31.2412 36.3326 31.8224 35.753C32.3808 35.1961 32.5543 34.3314 32.2488 33.6013C32.7049 33.5604 33.1322 33.3607 33.4563 33.0371C34.1305 32.3648 34.2183 31.2588 33.6568 30.4898C34.4213 30.0651 35.0926 29.4912 35.6311 28.8022C35.6997 28.7127 35.7301 28.5998 35.7158 28.488C35.7016 28.3761 35.6437 28.2745 35.5548 28.2051C35.4659 28.1358 35.3533 28.1043 35.2413 28.1177C35.1294 28.131 35.0273 28.188 34.9571 28.2763C34.4425 28.935 33.7886 29.4718 33.0423 29.8482L28.3654 25.1846L29.5098 24.2093C29.5961 24.1357 29.6496 24.0309 29.6586 23.9179C29.6676 23.8049 29.6314 23.6929 29.5579 23.6066C29.5215 23.5639 29.4771 23.5287 29.4271 23.5032C29.3771 23.4776 29.3226 23.4622 29.2666 23.4577C29.2107 23.4533 29.1544 23.4599 29.101 23.4772C29.0476 23.4944 28.9981 23.5221 28.9554 23.5585L27.4208 24.8665C26.34 25.6293 24.979 25.9135 23.6829 25.6452C23.6135 25.6308 23.5416 25.6339 23.4737 25.6542C23.4058 25.6746 23.344 25.7115 23.294 25.7617L22.6663 26.3907C21.7732 27.2865 20.3174 27.288 19.4207 26.3937C19.2872 26.2329 19.2873 26.0723 19.4208 25.9116L22.7054 22.6399C23.7144 21.6348 24.9746 21.386 26.3078 21.12C26.3652 21.1086 26.4196 21.0855 26.4677 21.0522L29.1559 19.1887L37.2185 27.2288C37.4197 27.3952 37.6208 27.3952 37.822 27.2288L39.8744 25.1817C40.0418 24.98 40.0418 24.7782 39.8743 24.5764ZM11.7105 26.0564L10.2633 24.6129L17.3922 17.5035L18.8395 18.947L11.7105 26.0564ZM15.7709 32.6949C15.3384 33.1263 14.6347 33.1262 14.2022 32.6949C13.776 32.2699 13.7751 31.547 14.2022 31.1211L15.1887 30.1374C15.6083 29.7189 16.3241 29.7144 16.7489 30.129C17.1827 30.5526 17.1877 31.2819 16.7574 31.7111L15.7709 32.6949ZM17.9495 34.8676C16.9376 35.8767 15.3661 34.3056 16.3808 33.2939L17.3906 32.2869C17.8134 31.8687 18.523 31.861 18.9508 32.2785C19.3847 32.7021 19.3896 33.4314 18.9593 33.8605L17.9495 34.8676ZM20.1116 37.0568C19.6882 37.479 18.9993 37.4788 18.5759 37.0566C18.1306 36.6411 18.1081 35.9168 18.5431 35.4829L19.6087 34.4202C20.0447 33.9853 20.7439 34.0185 21.1695 34.4442C21.5945 34.8589 21.5992 35.5733 21.1778 35.9935L20.1116 37.0568ZM23.1112 38.4107L22.6902 38.8305C22.2624 39.2571 21.5626 39.2611 21.13 38.8388C20.696 38.4153 20.6912 37.6859 21.1215 37.2568L21.5424 36.837C21.957 36.4259 22.6424 36.4082 23.0752 36.8029C23.5339 37.221 23.5518 37.9712 23.1112 38.4107ZM37.5202 26.3227L29.3016 18.127L30.7488 16.6835L38.9674 24.8792L37.5202 26.3227ZM31.8866 3.5343L30.0798 0.222595C29.9202 -0.0702258 29.4861 -0.0685164 29.3283 0.224902L27.5454 3.54131C27.5119 3.60354 27.4944 3.67312 27.4944 3.74379V12.0346C27.4944 13.2602 28.4912 14.2573 29.7166 14.2573C30.942 14.2573 31.9389 13.2602 31.9389 12.0346V3.73909C31.9389 3.66752 31.921 3.59709 31.8866 3.5343ZM29.7075 1.32482L30.7938 3.31601L28.6368 3.31627L29.7075 1.32482ZM31.0842 12.0346C31.0842 12.7887 30.4707 13.4024 29.7167 13.4024C28.9627 13.4024 28.3492 12.7888 28.3492 12.0346V11.6071H31.0842V12.0346ZM28.3492 10.7522V4.17123L31.0842 4.17089V10.7522H28.3492Z" fill="#DA1F26"/>
<path d="M6.74842 32.3401C5.90013 32.3401 5.20996 31.6498 5.20996 30.8013C5.20996 29.9528 5.90013 29.2625 6.74842 29.2625C7.59671 29.2625 8.28688 29.9529 8.28688 30.8013C8.28688 31.6498 7.59671 32.3401 6.74842 32.3401ZM6.74842 30.1173C6.37141 30.1173 6.06466 30.4241 6.06466 30.8012C6.06466 31.1783 6.37141 31.4852 6.74842 31.4852C7.12543 31.4852 7.43218 31.1783 7.43218 30.8012C7.43218 30.4241 7.12543 30.1173 6.74842 30.1173ZM39.8743 24.5764L31.0505 15.7772C30.9704 15.6973 30.8619 15.6525 30.7487 15.6525C30.6356 15.6525 30.5271 15.6973 30.447 15.7772L28.3946 17.8244C28.2271 18.0262 28.2271 18.228 28.3946 18.4298L28.5405 18.5752L26.0537 20.2991C24.9847 20.5123 23.9474 20.6968 23.0095 21.303L22.0798 21.1176L19.5232 19.4723L19.7464 19.2497C19.9139 19.0479 19.9139 18.8461 19.7464 18.6443L17.6939 16.5971C17.6138 16.5172 17.5053 16.4724 17.3921 16.4724C17.279 16.4724 17.1705 16.5172 17.0904 16.5971L9.35629 24.31C9.18877 24.5118 9.18877 24.7136 9.35629 24.9154L11.4087 26.9626C11.6098 27.1289 11.811 27.1289 12.0122 26.9626L18.9036 20.0901L21.6855 21.8804C21.7305 21.9094 21.7807 21.9296 21.8332 21.94L22.1371 22.0006C22.1255 22.0119 18.8177 25.3058 18.8177 25.3058C18.3589 25.7629 18.3577 26.5407 18.8173 26.999C20.0477 28.2261 22.0459 28.2239 23.2714 26.9943L23.7398 26.5248C25.1071 26.7484 26.5194 26.4588 27.6882 25.7163L32.8528 30.8578C33.279 31.2829 33.28 32.0055 32.8528 32.4316C32.4202 32.8629 31.7167 32.8629 31.2842 32.4316L29.1624 30.3157C29.0822 30.2357 28.9734 30.1908 28.8601 30.191C28.7467 30.1912 28.6381 30.2363 28.5581 30.3166C28.4781 30.3969 28.4332 30.5057 28.4334 30.6191C28.4336 30.7324 28.4788 30.8411 28.559 30.9211L31.2189 33.5737C31.645 33.9987 31.6459 34.7216 31.2189 35.1475C30.7863 35.5788 30.0827 35.5787 29.6501 35.1475L26.7518 32.257C26.6716 32.177 26.5628 32.1322 26.4495 32.1323C26.3361 32.1325 26.2275 32.1777 26.1475 32.258C26.0675 32.3383 26.0226 32.4471 26.0228 32.5604C26.023 32.6738 26.0682 32.7825 26.1484 32.8625L28.5018 35.2095C28.9222 35.6353 28.9203 36.3535 28.4956 36.777C28.0632 37.2083 27.3595 37.2083 26.9269 36.777L24.3219 34.1791C24.2417 34.0991 24.1329 34.0542 24.0196 34.0544C23.9062 34.0546 23.7976 34.0998 23.7176 34.18C23.6376 34.2603 23.5927 34.3691 23.5929 34.4825C23.5931 34.5959 23.6383 34.7045 23.7185 34.7846L25.2276 36.2895C25.6538 36.7146 25.6548 37.4372 25.2276 37.8633C25.0974 37.9932 24.937 38.0887 24.7608 38.1411C24.5845 38.1935 24.398 38.2012 24.218 38.1635C24.4195 37.4524 24.1971 36.6688 23.6511 36.1709C23.2831 35.8343 22.8004 35.6512 22.3018 35.6589C22.4527 35.0047 22.2463 34.3009 21.7666 33.8325C21.3323 33.4095 20.7365 33.1911 20.1298 33.268C20.1872 32.6789 19.9723 32.081 19.5477 31.6666C19.1044 31.2339 18.5027 31.0562 17.9275 31.1288C17.9884 30.5371 17.772 29.9334 17.3458 29.5172C16.7279 28.9139 15.8012 28.8028 15.0686 29.1802C14.7641 28.823 14.47 28.4571 14.1864 28.0831C14.1525 28.0384 14.1101 28.0008 14.0617 27.9724C14.0133 27.944 13.9597 27.9255 13.9041 27.9178C13.8485 27.9102 13.792 27.9135 13.7377 27.9277C13.6834 27.9419 13.6324 27.9667 13.5877 28.0005C13.5429 28.0344 13.5053 28.0768 13.4769 28.1252C13.4486 28.1737 13.43 28.2272 13.4224 28.2828C13.4147 28.3384 13.4181 28.395 13.4323 28.4493C13.4465 28.5036 13.4712 28.5545 13.5051 28.5993C13.7934 28.9795 14.0922 29.3517 14.4013 29.7152L13.5987 30.5157C12.8408 31.2714 12.8406 32.5443 13.5987 33.3003C14.0147 33.7152 14.6299 33.9279 15.2133 33.8588C15.176 34.4624 15.3388 35.0355 15.7773 35.4729C16.1918 35.8862 16.8013 36.0973 17.3823 36.0326C17.2536 37.1755 18.1915 38.2276 19.3439 38.2276C19.5464 38.2276 19.7483 38.1946 19.9427 38.1319C19.9647 38.6327 20.1724 39.0985 20.533 39.4506C21.2893 40.1888 22.5452 40.1822 23.2937 39.4358C23.2937 39.4358 23.7689 38.96 23.7947 38.9311C24.4942 39.177 25.3053 38.9932 25.8311 38.4688C26.1179 38.1829 26.3056 37.8239 26.3768 37.4337C27.1454 38.1451 28.3513 38.1282 29.0991 37.3825C29.4286 37.0538 29.6273 36.629 29.6688 36.1711C30.3832 36.4722 31.2412 36.3326 31.8224 35.753C32.3808 35.1961 32.5543 34.3314 32.2488 33.6013C32.7049 33.5604 33.1322 33.3607 33.4563 33.0371C34.1305 32.3648 34.2183 31.2588 33.6568 30.4898C34.4213 30.0651 35.0926 29.4912 35.6311 28.8022C35.6997 28.7127 35.7301 28.5998 35.7158 28.488C35.7016 28.3761 35.6437 28.2745 35.5548 28.2051C35.4659 28.1358 35.3533 28.1043 35.2413 28.1177C35.1294 28.131 35.0273 28.188 34.9571 28.2763C34.4425 28.935 33.7886 29.4718 33.0423 29.8482L28.3654 25.1846L29.5098 24.2093C29.5961 24.1357 29.6496 24.0309 29.6586 23.9179C29.6676 23.8049 29.6314 23.6929 29.5579 23.6066C29.5215 23.5639 29.4771 23.5287 29.4271 23.5032C29.3771 23.4776 29.3226 23.4622 29.2666 23.4577C29.2107 23.4533 29.1544 23.4599 29.101 23.4772C29.0476 23.4944 28.9981 23.5221 28.9554 23.5585L27.4208 24.8665C26.34 25.6293 24.979 25.9135 23.6829 25.6452C23.6135 25.6308 23.5416 25.6339 23.4737 25.6542C23.4058 25.6746 23.344 25.7115 23.294 25.7617L22.6663 26.3907C21.7732 27.2865 20.3174 27.288 19.4207 26.3937C19.2872 26.2329 19.2873 26.0723 19.4208 25.9116L22.7054 22.6399C23.7144 21.6348 24.9746 21.386 26.3078 21.12C26.3652 21.1086 26.4196 21.0855 26.4677 21.0522L29.1559 19.1887L37.2185 27.2288C37.4197 27.3952 37.6208 27.3952 37.822 27.2288L39.8744 25.1817C40.0418 24.98 40.0418 24.7782 39.8743 24.5764ZM11.7105 26.0564L10.2633 24.6129L17.3922 17.5035L18.8395 18.947L11.7105 26.0564ZM15.7709 32.6949C15.3384 33.1263 14.6347 33.1262 14.2022 32.6949C13.776 32.2699 13.7751 31.547 14.2022 31.1211L15.1887 30.1374C15.6083 29.7189 16.3241 29.7144 16.7489 30.129C17.1827 30.5526 17.1877 31.2819 16.7574 31.7111L15.7709 32.6949ZM17.9495 34.8676C16.9376 35.8767 15.3661 34.3056 16.3808 33.2939L17.3906 32.2869C17.8134 31.8687 18.523 31.861 18.9508 32.2785C19.3847 32.7021 19.3896 33.4314 18.9593 33.8605L17.9495 34.8676ZM20.1116 37.0568C19.6882 37.479 18.9993 37.4788 18.5759 37.0566C18.1306 36.6411 18.1081 35.9168 18.5431 35.4829L19.6087 34.4202C20.0447 33.9853 20.7439 34.0185 21.1695 34.4442C21.5945 34.8589 21.5992 35.5733 21.1778 35.9935L20.1116 37.0568ZM23.1112 38.4107L22.6902 38.8305C22.2624 39.2571 21.5626 39.2611 21.13 38.8388C20.696 38.4153 20.6912 37.6859 21.1215 37.2568L21.5424 36.837C21.957 36.4259 22.6424 36.4082 23.0752 36.8029C23.5339 37.221 23.5518 37.9712 23.1112 38.4107ZM37.5202 26.3227L29.3016 18.127L30.7488 16.6835L38.9674 24.8792L37.5202 26.3227ZM31.8866 3.5343L30.0798 0.222595C29.9202 -0.0702258 29.4861 -0.0685164 29.3283 0.224902L27.5454 3.54131C27.5119 3.60354 27.4944 3.67312 27.4944 3.74379V12.0346C27.4944 13.2602 28.4912 14.2573 29.7166 14.2573C30.942 14.2573 31.9389 13.2602 31.9389 12.0346V3.73909C31.9389 3.66752 31.921 3.59709 31.8866 3.5343ZM29.7075 1.32482L30.7938 3.31601L28.6368 3.31627L29.7075 1.32482ZM31.0842 12.0346C31.0842 12.7887 30.4707 13.4024 29.7167 13.4024C28.9627 13.4024 28.3492 12.7888 28.3492 12.0346V11.6071H31.0842V12.0346ZM28.3492 10.7522V4.17123L31.0842 4.17089V10.7522H28.3492Z" stroke="#DA1F26" stroke-width="0.6" mask="url(#path-3-outside-1_1097_1217)"/>
<path d="M23.87 18.8272C24.2597 18.8272 24.5756 18.5113 24.5756 18.1216C24.5756 17.7319 24.2597 17.416 23.87 17.416C23.4803 17.416 23.1645 17.7319 23.1645 18.1216C23.1645 18.5113 23.4803 18.8272 23.87 18.8272Z" fill="#DA1F26" stroke="#DA1F26" stroke-width="0.3"/>
<path d="M14.7328 37.894C15.1225 37.894 15.4384 37.5782 15.4384 37.1885C15.4384 36.7988 15.1225 36.4829 14.7328 36.4829C14.3431 36.4829 14.0272 36.7988 14.0272 37.1885C14.0272 37.5782 14.3431 37.894 14.7328 37.894Z" fill="#DA1F26" stroke="#DA1F26" stroke-width="0.3"/>
</g>
</g>
<defs>
<clipPath id="clip0_1097_1217">
<rect width="40" height="40" fill="white"/>
</clipPath>
<clipPath id="clip1_1097_1217">
<rect width="40" height="40" fill="white"/>
</clipPath>
</defs>
</svg>
