<svg width="40" height="40" viewBox="0 0 40 40" fill="none" xmlns="http://www.w3.org/2000/svg">
<path d="M39.8967 23.1854L37.8719 20.0875C36.9779 18.7186 35.4589 17.9011 33.8077 17.9011H28.5714V14.8879C28.5714 13.0481 27.0752 11.552 25.2355 11.552H15.4331C14.8831 8.67941 12.3545 6.5 9.32385 6.5C5.89211 6.5 3.10045 9.29204 3.10045 12.7234C3.10045 14.8811 4.20526 16.7844 5.87788 17.9012H0.635231C0.284226 17.9012 9.3115e-05 18.1854 9.3115e-05 18.5363C9.3115e-05 18.8872 0.284226 19.1713 0.635138 19.1713H6.98428V20.4411H4.44429C4.36091 20.4411 4.27835 20.4576 4.20132 20.4895C4.1243 20.5214 4.05432 20.5682 3.99538 20.6272C3.93644 20.6861 3.88969 20.7561 3.85782 20.8332C3.82595 20.9102 3.80957 20.9928 3.80962 21.0762C3.80957 21.1595 3.82595 21.2421 3.85783 21.3191C3.88971 21.3961 3.93645 21.4661 3.9954 21.5251C4.05434 21.584 4.12433 21.6308 4.20135 21.6626C4.27838 21.6945 4.36093 21.7109 4.44429 21.7108H6.98419V22.9806H0.635045C0.551647 22.9805 0.469059 22.9969 0.392002 23.0288C0.314944 23.0607 0.244927 23.1075 0.185951 23.1664C0.126976 23.2254 0.0801985 23.2954 0.048292 23.3725C0.0163856 23.4495 -2.43379e-05 23.5321 1.09064e-07 23.6155C-4.8786e-05 23.6989 0.0163431 23.7815 0.0482386 23.8586C0.0801341 23.9357 0.126908 24.0057 0.185886 24.0647C0.244864 24.1237 0.314889 24.1705 0.391959 24.2024C0.469029 24.2343 0.551631 24.2507 0.635045 24.2507H6.98419V27.0626C5.86486 27.5564 5.07943 28.6731 5.07943 29.973V30.5997C5.07943 30.7681 5.14632 30.9296 5.26539 31.0487C5.38447 31.1678 5.54597 31.2347 5.71438 31.2347H11.3456C11.7068 32.7882 13.0997 33.9508 14.7617 33.9508C16.4243 33.9508 17.8168 32.7882 18.1779 31.2347H30.3933C30.7548 32.7882 32.1477 33.9508 33.8094 33.9508C35.4713 33.9508 36.8645 32.7882 37.2256 31.2347H39.3651C39.4485 31.2348 39.5311 31.2184 39.6081 31.1865C39.6852 31.1545 39.7552 31.1078 39.8141 31.0488C39.8731 30.9898 39.9198 30.9198 39.9517 30.8427C39.9835 30.7657 39.9999 30.6831 39.9998 30.5997V23.5327C39.9998 23.4094 39.964 23.2887 39.8966 23.1854H39.8967ZM4.37026 12.7233C4.37026 9.992 6.59254 7.76962 9.32385 7.76962C12.0555 7.76962 14.2775 9.992 14.2775 12.7233C14.2775 15.4546 12.0556 17.677 9.32385 17.677C6.59254 17.677 4.37026 15.4546 4.37026 12.7233ZM8.25391 24.2507H9.52362C9.60704 24.2507 9.68966 24.2343 9.76674 24.2024C9.84382 24.1705 9.91385 24.1237 9.97284 24.0647C10.0318 24.0057 10.0786 23.9357 10.1105 23.8586C10.1424 23.7815 10.1588 23.6989 10.1588 23.6155C10.1588 23.5321 10.1424 23.4495 10.1105 23.3724C10.0786 23.2954 10.0318 23.2253 9.97281 23.1664C9.91382 23.1074 9.84379 23.0606 9.76672 23.0287C9.68964 22.9968 9.60704 22.9804 9.52362 22.9805H8.25391V21.7108H12.6987C12.782 21.7108 12.8646 21.6944 12.9416 21.6625C13.0186 21.6306 13.0886 21.5839 13.1475 21.5249C13.2064 21.466 13.2532 21.396 13.285 21.319C13.3169 21.242 13.3333 21.1594 13.3332 21.0761C13.3333 20.9927 13.3169 20.9101 13.285 20.8331C13.2532 20.756 13.2064 20.686 13.1475 20.6271C13.0885 20.5681 13.0186 20.5213 12.9415 20.4894C12.8645 20.4575 12.7819 20.441 12.6986 20.441H8.25391V19.1711H16.5078C16.8584 19.1711 17.1429 18.8871 17.1429 18.5361C17.1429 18.1851 16.8584 17.901 16.5078 17.901H12.7698C14.4167 16.8013 15.5091 14.9383 15.5425 12.8217H25.2359C26.3748 12.8217 27.3015 13.7488 27.3015 14.8878V26.79H8.262C8.25949 26.79 8.25688 26.7907 8.254 26.7907L8.25391 24.2507ZM27.3015 29.9647H18.2357C18.1358 29.2344 17.8118 28.5761 17.3332 28.0599H27.3016L27.3015 29.9647ZM8.2619 28.0599H12.1903C11.7122 28.5761 11.3877 29.2344 11.2882 29.9647H6.34914C6.35342 28.914 7.2101 28.0599 8.2619 28.0599ZM14.7618 32.6811C13.5269 32.6811 12.5217 31.6762 12.5217 30.4409C12.5217 29.2061 13.5269 28.2008 14.7618 28.2008C15.997 28.2008 17.002 29.2061 17.002 30.4409C17.002 31.6762 15.997 32.6811 14.7618 32.6811ZM33.8094 32.6811C32.5746 32.6811 31.5694 31.6762 31.5694 30.4409C31.5694 29.2061 32.5746 28.2008 33.8095 28.2008C35.0446 28.2008 36.0496 29.2061 36.0496 30.4409C36.0496 31.6762 35.0446 32.6811 33.8094 32.6811ZM38.7301 29.9647H37.2833C37.0497 28.2546 35.5827 26.9311 33.8094 26.9311C32.0361 26.9311 30.5695 28.2546 30.3355 29.9647H28.5712V19.1713H33.8077C35.028 19.1713 36.1503 19.7733 36.8092 20.7818L38.7301 23.7216V29.9647Z" fill="#3BA37E"/>
<path d="M34.8483 30.4409C34.8483 31.0146 34.3833 31.4796 33.8097 31.4796C33.236 31.4796 32.771 31.0146 32.771 30.4409C32.771 29.8672 33.236 29.4022 33.8097 29.4022C34.3833 29.4022 34.8483 29.8672 34.8483 30.4409ZM15.8006 30.4409C15.8006 31.0146 15.3356 31.4796 14.7619 31.4796C14.1887 31.4796 13.7236 31.0146 13.7236 30.4409C13.7236 29.8672 14.1887 29.4022 14.7619 29.4022C15.3356 29.4022 15.8006 29.8672 15.8006 30.4409ZM10.1589 12.7233V9.94546C10.1589 9.86207 10.1425 9.77949 10.1106 9.70245C10.0787 9.62541 10.0319 9.55541 9.9729 9.49646C9.91391 9.43752 9.84388 9.39078 9.76681 9.35892C9.68974 9.32706 9.60715 9.31071 9.52376 9.31079C9.4404 9.31074 9.35785 9.32713 9.28082 9.359C9.2038 9.39088 9.13381 9.43763 9.07487 9.49657C9.01592 9.55552 8.96918 9.6255 8.9373 9.70253C8.90542 9.77955 8.88904 9.8621 8.88909 9.94546V12.5161L7.59323 14.2939C7.54408 14.3612 7.50867 14.4375 7.48903 14.5185C7.4694 14.5995 7.46593 14.6835 7.47882 14.7659C7.49171 14.8482 7.5207 14.9272 7.56415 14.9983C7.60759 15.0694 7.66463 15.1313 7.732 15.1803C7.84039 15.2599 7.97139 15.3029 8.10588 15.3028C8.20601 15.3029 8.30473 15.2793 8.39396 15.2338C8.48319 15.1884 8.56037 15.1225 8.61918 15.0414L10.0372 13.0972C10.1163 12.9885 10.1589 12.8576 10.1589 12.7233ZM33.5956 19.8059H32.3811C32.2977 19.8058 32.2151 19.8222 32.138 19.8541C32.0609 19.886 31.9909 19.9328 31.9319 19.9918C31.8729 20.0508 31.8262 20.1208 31.7943 20.1979C31.7624 20.275 31.746 20.3576 31.746 20.441V24.8853C31.746 24.9687 31.7624 25.0513 31.7943 25.1284C31.8262 25.2054 31.873 25.2754 31.932 25.3344C31.9909 25.3934 32.061 25.4402 32.138 25.4721C32.2151 25.504 32.2977 25.5204 32.3811 25.5203H36.6542C37.0525 25.5203 37.4089 25.3143 37.6087 24.9703C37.8085 24.6262 37.8089 24.2142 37.6119 23.871L36.1293 21.2758C35.6116 20.3698 34.6405 19.8059 33.5956 19.8059ZM33.0162 24.2506V21.076H33.5956C33.8861 21.0763 34.1714 21.1531 34.4226 21.2989C34.6739 21.4446 34.8822 21.6541 35.0266 21.9061L36.3662 24.2506H33.0162Z" fill="#3BA37E"/>
</svg>
