<svg width="40" height="40" viewBox="0 0 40 40" fill="none" xmlns="http://www.w3.org/2000/svg">
<g clip-path="url(#clip0_1097_1333)">
<path d="M1.08173 23.9056L4.32862 24.2186C4.69728 25.5556 5.23739 26.8393 5.93549 28.0377L3.8734 30.5276C3.68312 30.7572 3.58538 31.0495 3.59932 31.3473C3.61327 31.6451 3.73789 31.927 3.94879 32.1378L7.84253 36.0315C8.05322 36.2422 8.33496 36.3668 8.63262 36.3807C8.93028 36.3947 9.22245 36.2971 9.45196 36.1071L11.9477 34.0395C13.1451 34.7357 14.426 35.2771 15.7598 35.6508L16.0728 38.9092C16.1011 39.2065 16.2387 39.4828 16.459 39.6845C16.6793 39.8862 16.9666 39.9991 17.2653 40.0011H22.7857C23.0843 39.9987 23.3713 39.8856 23.5913 39.6838C23.8113 39.482 23.9487 39.2057 23.9768 38.9085L24.2898 35.6563C25.6268 35.2867 26.9104 34.7458 28.1087 34.047L30.5988 36.1077C30.8284 36.2977 31.1206 36.3951 31.4182 36.381C31.7158 36.3669 31.9975 36.2423 32.2081 36.0315L36.1013 32.1378C36.3121 31.9271 36.4367 31.6453 36.4507 31.3476C36.4647 31.0499 36.3671 30.7577 36.177 30.5282L34.1086 28.0314C34.805 26.8336 35.3466 25.5523 35.7203 24.2181L38.9196 23.9058C39.2155 23.8769 39.49 23.739 39.6897 23.5188C39.8894 23.2987 40 23.0121 40 22.7149V17.1942C40 16.8968 39.8892 16.6099 39.6892 16.3897C39.4892 16.1695 39.2144 16.0317 38.9183 16.0031L35.6714 15.6903C35.3027 14.3533 34.7626 13.0696 34.0645 11.8713L36.1266 9.38112C36.3158 9.15266 36.4134 8.86207 36.4004 8.56573C36.3875 8.2694 36.2649 7.98843 36.0565 7.77734L32.2129 3.88342C32.0026 3.67064 31.7203 3.54433 31.4215 3.52936C31.1228 3.51439 30.8293 3.61187 30.5988 3.80257L28.103 5.87098C26.9056 5.1748 25.6247 4.63337 24.291 4.25967L23.978 1.04765C23.948 0.754791 23.8084 0.484106 23.5872 0.289886C23.3659 0.0956655 23.0795 -0.00772561 22.7852 0.0004504H17.2653C16.9714 -0.00730604 16.6855 0.0961644 16.4646 0.290165C16.2438 0.484166 16.1043 0.754393 16.0741 1.04679L15.761 4.27574C14.4244 4.6413 13.1408 5.17837 11.9421 5.87354L9.45179 3.80701C9.22255 3.61666 8.93054 3.51868 8.63288 3.53224C8.33522 3.54581 8.05333 3.66993 7.84236 3.88035L3.94879 7.77289C3.73825 7.98355 3.61383 8.26515 3.59986 8.56265C3.58588 8.86015 3.68336 9.15218 3.87323 9.38164L5.94164 11.8774C5.24545 13.0748 4.70402 14.3557 4.33033 15.6894L1.08241 16.0024C0.786065 16.0308 0.510949 16.1687 0.310798 16.3891C0.110646 16.6095 -0.000167628 16.8965 1.90332e-07 17.1942V22.7145C-1.38619e-05 23.012 0.11078 23.2988 0.310774 23.519C0.510768 23.7393 0.785622 23.8771 1.08173 23.9056ZM2.3932 18.2811L5.4018 17.9905C5.65433 17.9661 5.89257 17.8621 6.08212 17.6935C6.27167 17.5248 6.40273 17.3003 6.45635 17.0524C6.82378 15.4033 7.48649 13.8343 8.41245 12.4212C8.55033 12.2075 8.61653 11.9554 8.60147 11.7016C8.58641 11.4477 8.49086 11.2052 8.32869 11.0094L6.41122 8.69376L8.76442 6.34056L11.0797 8.25803C11.2779 8.42225 11.5238 8.51816 11.7809 8.53152C12.038 8.54489 12.2925 8.47499 12.5067 8.33222C13.9115 7.40275 15.4771 6.74295 17.1234 6.38654C17.3688 6.34066 17.5928 6.2166 17.7619 6.03291C17.9309 5.84921 18.0361 5.61575 18.0615 5.36738L18.3521 2.39297H21.6992L21.9898 5.36738C22.0147 5.61784 22.1192 5.85372 22.2881 6.04036C22.4569 6.227 22.6812 6.35457 22.9279 6.40432C24.577 6.76815 26.1465 7.42764 27.5605 8.35085C27.7747 8.48813 28.027 8.55357 28.2809 8.53768C28.5348 8.52179 28.7771 8.42539 28.9725 8.26247L31.2824 6.34791L33.5961 8.68983L31.672 11.0092C31.5079 11.2074 31.4121 11.4533 31.3988 11.7103C31.3855 11.9673 31.4554 12.2217 31.5982 12.4359C32.5275 13.8407 33.1872 15.4062 33.5437 17.0524C33.5973 17.3003 33.7283 17.5248 33.9179 17.6935C34.1074 17.8621 34.3457 17.9661 34.5982 17.9905L37.6068 18.2811V21.629L34.6456 21.9181C34.3933 21.9427 34.1553 22.0468 33.966 22.2154C33.7767 22.384 33.6458 22.6083 33.5922 22.8561C33.2252 24.5056 32.5627 26.075 31.6368 27.4886C31.4989 27.7023 31.4326 27.9544 31.4477 28.2083C31.4628 28.4622 31.5583 28.7047 31.7205 28.9006L33.6389 31.2147L31.2857 33.5679L28.9702 31.6504C28.772 31.4862 28.5261 31.3903 28.269 31.3769C28.0119 31.3635 27.7574 31.4334 27.5432 31.5762C26.1385 32.5059 24.5729 33.1658 22.9265 33.5224C22.6778 33.5784 22.4531 33.7116 22.2846 33.903C22.1162 34.0943 22.0125 34.334 21.9884 34.5879L21.6985 37.6079H18.3514L18.0608 34.5879C18.0365 34.3347 17.9326 34.0958 17.7641 33.9054C17.5956 33.715 17.371 33.5829 17.1227 33.528C15.4734 33.1599 13.9042 32.4966 12.491 31.5701C12.2774 31.432 12.0254 31.3655 11.7715 31.3804C11.5176 31.3952 11.275 31.4906 11.079 31.6526L8.76374 33.5694L6.41122 31.2147L8.32869 28.8992C8.4929 28.7009 8.58877 28.455 8.60207 28.1979C8.61538 27.9408 8.5454 27.6862 8.40254 27.472C7.47323 26.0672 6.81349 24.5018 6.45703 22.8555C6.40341 22.6076 6.27236 22.3831 6.08281 22.2144C5.89325 22.0458 5.65501 21.9418 5.40249 21.9174L2.39389 21.6268L2.3932 18.2811Z" fill="#DAA61F"/>
<path d="M20.0247 31.8986C22.3872 31.8986 24.6965 31.198 26.6608 29.8855C28.6251 28.573 30.1561 26.7075 31.0602 24.5249C31.9642 22.3423 32.2008 19.9406 31.7398 17.6236C31.2789 15.3065 30.1413 13.1782 28.4708 11.5077C26.8003 9.83725 24.672 8.69964 22.3549 8.23877C20.0379 7.77791 17.6362 8.01448 15.4536 8.91856C13.271 9.82265 11.4055 11.3537 10.093 13.318C8.78056 15.2823 8.08004 17.5917 8.08008 19.9541C8.08365 23.1209 9.34325 26.157 11.5825 28.3962C13.8218 30.6355 16.8579 31.8951 20.0247 31.8986ZM20.0247 10.4027C21.9138 10.4027 23.7605 10.9628 25.3312 12.0124C26.902 13.0619 28.1262 14.5536 28.8491 16.2989C29.572 18.0442 29.7612 19.9647 29.3926 21.8175C29.0241 23.6703 28.1144 25.3722 26.7786 26.708C25.4428 28.0438 23.7409 28.9535 21.8881 29.322C20.0353 29.6906 18.1148 29.5014 16.3695 28.7785C14.6242 28.0556 13.1325 26.8313 12.083 25.2606C11.0335 23.6899 10.4733 21.8432 10.4733 19.9541C10.4763 17.4219 11.4836 14.9942 13.2742 13.2037C15.0648 11.4132 17.4925 10.4061 20.0247 10.4032V10.4027Z" fill="#DAA61F"/>
<path d="M17.8906 23.6066C18.1141 23.8248 18.4141 23.947 18.7265 23.947C19.0389 23.947 19.3389 23.8248 19.5624 23.6066L25.29 18.0145C25.4038 17.9051 25.4948 17.7742 25.5578 17.6294C25.6208 17.4846 25.6545 17.3288 25.657 17.1709C25.6595 17.0131 25.6307 16.8563 25.5724 16.7096C25.514 16.5629 25.4271 16.4292 25.3168 16.3162C25.2066 16.2032 25.075 16.1132 24.9297 16.0513C24.7845 15.9894 24.6284 15.9568 24.4706 15.9555C24.3127 15.9542 24.1561 15.9841 24.0098 16.0436C23.8636 16.1031 23.7305 16.1909 23.6184 16.302L18.7265 21.0776L16.383 18.7897C16.2709 18.6786 16.1378 18.5908 15.9916 18.5313C15.8453 18.4718 15.6887 18.4419 15.5308 18.4432C15.373 18.4445 15.2169 18.4771 15.0717 18.539C14.9264 18.6009 14.7949 18.6909 14.6846 18.8039C14.5743 18.9169 14.4874 19.0506 14.4291 19.1973C14.3707 19.344 14.3419 19.5008 14.3444 19.6587C14.3469 19.8165 14.3806 19.9724 14.4436 20.1171C14.5066 20.2619 14.5976 20.3928 14.7114 20.5023L17.8906 23.6066Z" fill="#DAA61F"/>
</g>
<defs>
<clipPath id="clip0_1097_1333">
<rect width="40" height="40" fill="white"/>
</clipPath>
</defs>
</svg>
